<svg width="27" height="27" viewBox="0 0 27 27" fill="none" xmlns="http://www.w3.org/2000/svg">
<rect width="27" height="27" fill="#F5F5F5"/>
<rect width="1440" height="1024" transform="translate(-116 -122)" fill="white"/>
<rect x="-16" y="-122" width="1240" height="1023" fill="#EEEEEE"/>
<rect x="-15.5" y="-121.5" width="231" height="1022" fill="white" stroke="#DDDDDD"/>
<path d="M17.7187 6.75C17.7187 7.86888 17.2743 8.94194 16.4831 9.73311C15.6919 10.5243 14.6189 10.9688 13.5 10.9688C12.3811 10.9688 11.3081 10.5243 10.5169 9.73311C9.72572 8.94194 9.28125 7.86888 9.28125 6.75C9.28125 5.63112 9.72572 4.55806 10.5169 3.76689C11.3081 2.97572 12.3811 2.53125 13.5 2.53125C14.6189 2.53125 15.6919 2.97572 16.4831 3.76689C17.2743 4.55806 17.7187 5.63112 17.7187 6.75ZM5.06362 22.6328C5.09977 20.4191 6.0045 18.3084 7.5827 16.7558C9.16089 15.2032 11.2861 14.333 13.5 14.333C15.7139 14.333 17.8391 15.2032 19.4173 16.7558C20.9955 18.3084 21.9002 20.4191 21.9364 22.6328C19.2897 23.8464 16.4117 24.4727 13.5 24.4688C10.4895 24.4688 7.632 23.8118 5.06362 22.6328Z" stroke="#666F74" stroke-width="1.5" stroke-linecap="round" stroke-linejoin="round"/>
</svg>
